<svg width="900" height="900" viewBox="0 0 900 900" xmlns="http://www.w3.org/2000/svg">
  <defs>
    <linearGradient id="gold" x1="0" y1="0" x2="1" y2="1">
      <stop offset="0%" stop-color="#f8e7b5"/>
      <stop offset="55%" stop-color="#d4af37"/>
      <stop offset="100%" stop-color="#f1d88a"/>
    </linearGradient>
  </defs>
  <g fill="none" stroke="url(#gold)" stroke-width="18" stroke-linecap="round" stroke-linejoin="round" opacity="0.9">
    <path d="M450 150 C390 150 345 190 330 250"/>
    <path d="M450 150 C510 150 555 190 570 250"/>
    <path d="M330 250 C280 280 250 345 260 410 C270 490 335 560 430 575"/>
    <path d="M570 250 C620 280 650 345 640 410 C630 490 565 560 470 575"/>
    <path d="M340 300 C280 330 260 400 290 455"/>
    <path d="M560 300 C620 330 640 400 610 455"/>
    <path d="M450 255 C495 255 535 290 535 335 C535 390 500 420 455 430"/>
    <path d="M455 430 C410 442 390 488 405 530 C420 570 468 600 520 585"/>
    <path d="M430 590 C455 650 530 690 610 670"/>
    <path d="M345 220 L450 95 L555 220"/>
    <path d="M385 210 L450 140 L515 210"/>
    <circle cx="395" cy="330" r="12"/>
    <circle cx="505" cy="330" r="12"/>
    <path d="M365 635 C430 700 535 715 615 680"/>
  </g>
</svg>
