<svg width="900" height="900" viewBox="0 0 900 900" xmlns="http://www.w3.org/2000/svg">
  <defs>
    <linearGradient id="gold2" x1="0" y1="0" x2="1" y2="1">
      <stop offset="0%" stop-color="#fff2c9"/>
      <stop offset="55%" stop-color="#d4af37"/>
      <stop offset="100%" stop-color="#e7c96a"/>
    </linearGradient>
  </defs>
  <g fill="none" stroke="url(#gold2)" stroke-width="16" stroke-linecap="round" stroke-linejoin="round" opacity="0.9">
    <path d="M230 650 C260 500 290 390 355 300"/>
    <path d="M670 650 C640 500 610 390 545 300"/>
    <circle cx="370" cy="265" r="36"/>
    <circle cx="530" cy="265" r="36"/>
    <path d="M340 330 C330 390 335 500 365 620"/>
    <path d="M560 330 C570 390 565 500 535 620"/>
    <path d="M305 375 C350 350 395 350 435 380"/>
    <path d="M595 375 C550 350 505 350 465 380"/>
    <path d="M430 250 C450 235 470 235 490 250"/>
    <path d="M200 680 C310 740 590 740 700 680"/>
    <path d="M170 260 C250 220 340 200 430 205"/>
    <path d="M730 260 C650 220 560 200 470 205"/>
    <path d="M120 270 C180 210 230 170 285 140"/>
    <path d="M120 270 C185 340 220 395 250 470"/>
    <path d="M265 138 C220 190 180 235 140 285"/>
    <path d="M145 280 C205 330 245 380 285 430"/>
  </g>
</svg>
